<?xml version="1.0" standalone="no"?>
<!DOCTYPE svg PUBLIC "-//W3C//DTD SVG 20010904//EN"
 "http://www.w3.org/TR/2001/REC-SVG-20010904/DTD/svg10.dtd">
<svg version="1.0" xmlns="http://www.w3.org/2000/svg"
 width="50.000000pt" height="50.000000pt" viewBox="0 0 50.000000 50.000000"
 preserveAspectRatio="xMidYMid meet">

<g transform="translate(0.000000,50.000000) scale(0.100000,-0.100000)"
fill="#000000" stroke="none">
<path d="M242 455 c-2 -18 2 -36 8 -40 6 -4 10 7 10 29 0 45 -15 55 -18 11z"/>
<path d="M90 461 c0 -21 24 -61 37 -61 11 0 11 5 -2 29 -16 32 -35 49 -35 32z"/>
<path d="M393 458 c-6 -7 -16 -23 -22 -35 -9 -19 -9 -23 2 -23 8 0 20 14 27
30 14 33 9 49 -7 28z"/>
<path d="M219 370 c-73 -13 -141 -74 -155 -139 -10 -47 -13 -51 -39 -51 -20 0
-25 -5 -25 -25 l0 -25 250 0 250 0 0 25 c0 20 -5 25 -25 25 -26 0 -29 4 -39
51 -19 89 -123 155 -217 139z m111 -30 c21 -11 47 -32 58 -47 18 -26 42 -86
42 -104 0 -5 -81 -9 -180 -9 -99 0 -180 4 -180 9 0 18 24 78 42 104 44 63 144
85 218 47z"/>
<path d="M23 353 c9 -9 19 -14 23 -11 10 10 -6 28 -24 28 -15 0 -15 -1 1 -17z"/>
<path d="M455 359 c-12 -19 5 -23 22 -6 16 16 16 17 1 17 -9 0 -20 -5 -23 -11z"/>
</g>
</svg>
